<svg id="filled_outline" viewBox="0 0 512 512" xmlns="http://www.w3.org/2000/svg" data-name="filled outline"><circle cx="256" cy="328" fill="#cad8ed" r="160"/><path d="m336 56h-40v-32h40l-8 16z" fill="#ed6445"/><path d="m248 208v16h-64a7.99786 7.99786 0 0 1 -8-8v-88h64v72z" fill="#6d7eb3"/><path d="m248 208v16h-64a7.99786 7.99786 0 0 1 -8-8v-32h64v16z" fill="#8796c4"/><path d="m312 88v8a15.97833 15.97833 0 0 1 -16 16l-6 4-12.38 8.25a22.33626 22.33626 0 0 1 -12.38 3.75 22.30585 22.30585 0 0 1 -15.78-6.54l-9.46-9.46v16h-64v24h-7.48a13.78125 13.78125 0 0 1 -12.33-7.62012l-2.75-5.48974a60.81869 60.81869 0 0 1 -3.96-10.0503 61.71354 61.71354 0 0 1 -1.34-29.54984 24.00106 24.00106 0 0 1 23.54-19.29h69.69a16.00817 16.00817 0 0 1 11.32 4.68994l11.31 11.31006 24-8z" fill="#6d7eb3"/><path d="m176 120v32h-7.48a13.78125 13.78125 0 0 1 -12.33-7.62012l-2.75-5.48974a60.81869 60.81869 0 0 1 -3.96-10.0503z" fill="#8796c4"/><path d="m312 88v8a15.97833 15.97833 0 0 1 -16 16l-6 4-12.29-24.57007 10.29-3.42993z" fill="#8796c4"/><path d="m272 224 8-24h32l8 24z" fill="#89a8f5"/><path d="m212 32a20 20 0 0 1 20 20v28a0 0 0 0 1 0 0h-40a0 0 0 0 1 0 0v-28a20 20 0 0 1 20-20z" fill="#8796c4"/><path d="m111.17383 242.80566a167.86748 167.86748 0 0 0 -23.17383 85.19434c0 92.63574 75.36426 168 168 168s168-75.36426 168-168c0-75.96143-50.6803-140.29785-120-161.00171v-48.39575a24.02333 24.02333 0 0 0 16-22.60254v-8a8.00008 8.00008 0 0 0 -8-8h-8v-16h32a8 8 0 0 0 7.15527-11.57812l-6.21093-12.42188 6.21093-12.42188a8 8 0 0 0 -7.15527-11.57812h-40a8.00008 8.00008 0 0 0 -8 8v56a8.0122 8.0122 0 0 0 -2.52979.41016l-19.30957 6.43652-7.81738-7.81738a23.84254 23.84254 0 0 0 -16.9707-7.0293h-1.37256v-20a28 28 0 0 0 -56 0v20h-12.32471a32.08678 32.08678 0 0 0 -31.3789 25.72363 69.8819 69.8819 0 0 0 5.99218 44.74219l2.74414 5.48828a21.66107 21.66107 0 0 0 18.96729 12.02783v24.896a168.963 168.963 0 0 0 -56.82617 57.92773zm209.6709-199.22754 2.21093 4.42188h-19.05566v-16h19.05566l-2.21093 4.42188a7.99945 7.99945 0 0 0 0 7.15624zm87.14673 283.75245a48.00267 48.00267 0 0 1 -55.99146-47.33057 47.72355 47.72355 0 0 1 13.71387-33.5918l-11.42774-11.1992a63.99995 63.99995 0 0 0 45.71387 108.791 64.55847 64.55847 0 0 0 7.2052-.40649c-7.83276 76.51562-72.65613 136.40649-151.2052 136.40649-83.813 0-152-68.18652-152-152a151.8189 151.8189 0 0 1 64-123.94189v11.94189a16.01833 16.01833 0 0 0 16 16h64a8.00008 8.00008 0 0 0 8-8v-16a8.00076 8.00076 0 0 0 -2.34326-5.65723l-5.65674-5.65625v-20.47461c2.66528-.13818 5.33844-.21191 8-.21191a151.98514 151.98514 0 0 1 32 3.40039v12.59961h-8a7.99967 7.99967 0 0 0 -7.58936 5.46973l-8 24a8.00022 8.00022 0 0 0 7.58936 10.53027h48a8.00022 8.00022 0 0 0 7.58936-10.53027l-8-24a7.99967 7.99967 0 0 0 -7.58936-5.46973h-8v-8.22778c60.16089 20.07373 103.70142 76.802 103.99146 143.55835zm-173.6482-121.67334 5.65674 5.65625v4.68652h-16v-8a8.00076 8.00076 0 0 0 -2.34326-5.65723l-5.65674-5.65625v-4.68652h16v8a8.00076 8.00076 0 0 0 2.34326 5.65723zm-50.34326-13.65723h16v8a8.00076 8.00076 0 0 0 2.34326 5.65723l5.65674 5.65625v4.68652h-24zm48-16h-16v-24h-16v24h-16v-40h48zm74.23389 32 2.6665 8h-25.80078l2.6665-8zm-50.23389-48c-2.66107 0-5.33319.06763-8 .19287v-29.56494a30.33763 30.33763 0 0 0 34.05957.28027l5.94043-3.96v36.12232a168.17727 168.17727 0 0 0 -32-3.07052zm40-56a7.97545 7.97545 0 0 0 -2.79272.52588l-4.21241-8.42481.30347-.10107h14.70166a8.00917 8.00917 0 0 1 -8 8zm-96-52a11.99193 11.99193 0 0 1 23.29993-4h-15.29993v16h16v8h-24zm-44.01367 48.86133a16.04231 16.04231 0 0 1 15.68896-12.86133h28.32471v16h16v-16h25.37256a7.94677 7.94677 0 0 1 5.65723 2.34375l11.31347 11.31348a7.99862 7.99862 0 0 0 8.18653 1.93261l7.13208-2.37744 6.02441 12.04859-6.5022 4.33471a14.31494 14.31494 0 0 1 -18.06347-1.78906l-9.46387-9.46387a8.00038 8.00038 0 0 0 -13.65674 5.65723v8h-48v-16h-16v10.23364l-12.57062 4.19019a53.59661 53.59661 0 0 1 .55695-17.5625zm7.35693 39.93652-2.74414-5.48828c-.24853-.49707-.481-1.001-.71332-1.50513l8.1142-2.70459v12.86377a5.747 5.747 0 0 1 -4.65674-3.16577z"/><path d="m152 304v16a24 24 0 1 1 -15.87158 42.00293l-10.58887 11.99414a39.99989 39.99989 0 1 0 26.46045-69.99707z"/><path d="m240 280h-16a8 8 0 1 1 -8-8v-16a24 24 0 1 0 24 24z"/><path d="m256 360a24 24 0 0 0 0-48v16a8 8 0 1 1 -8 8h-16a24.02718 24.02718 0 0 0 24 24z"/><path d="m200 392v16a8 8 0 0 1 0 16v16a24 24 0 0 0 0-48z"/><path d="m310.40967 344.96 3.18066 15.67969a32.378 32.378 0 0 1 6.40967-.63969 31.96826 31.96826 0 1 1 -29.34082 19.20312l-14.66211-6.40624a48.007 48.007 0 1 0 44.00293-28.79688 48.33332 48.33332 0 0 0 -9.59033.96z"/><circle cx="304" cy="304" r="8"/><circle cx="280" cy="256" r="8"/><path d="m123.508 256h32.985v16h-32.985z" transform="matrix(.243 -.97 .97 .243 -150.074 335.786)"/><path d="m164 239.351h16v25.298h-16z" transform="matrix(.949 -.316 .316 .949 -70.863 67.323)"/><path d="m220.686 376h22.627v16h-22.627z" transform="matrix(.707 -.707 .707 .707 -203.573 276.501)"/><path d="m232 416h32v16h-32z"/><path d="m224 444.686h16v22.627h-16z" transform="matrix(.707 -.707 .707 .707 -254.489 297.608)"/><path d="m371.056 360h17.889v16h-17.889z" transform="matrix(.447 -.894 .894 .447 -119.1 543.28)"/><path d="m308 239.351h16.001v25.298h-16.001z" transform="matrix(.316 -.949 .949 .316 -22.996 472.095)"/></svg>